<?xml version="1.0" encoding="utf-8"?>
<!-- Generator: Adobe Illustrator 26.0.3, SVG Export Plug-In . SVG Version: 6.00 Build 0)  -->
<svg version="1.1" id="Scrutiny_Logo" xmlns="http://www.w3.org/2000/svg" xmlns:xlink="http://www.w3.org/1999/xlink" x="0px"
	 y="0px" viewBox="0 0 612 792" style="enable-background:new 0 0 612 792;" xml:space="preserve">
<style type="text/css">
	.st0{fill:none;stroke:#3C3C3B;stroke-width:14;stroke-linecap:round;stroke-miterlimit:10;}
	.st1{fill:#22264B;}
	.st2{fill:#3C3C3B;}
	.st3{fill:#E7BB6A;}
	.st4{fill:none;stroke:#E7BB6A;stroke-width:4;stroke-miterlimit:10;}
</style>
<path class="st0" d="M53.4,530.9c-3.4-6.6-6.5-13.4-9.5-20.3C27.6,472,18.5,429.1,18.5,384c0-169.8,128.8-303.7,287.6-303.7"/>
<path class="st0" d="M306.1,80.3c158.8,0,287.6,134,287.6,303.7c0,45.1-9.1,88-25.4,126.6c-2.9,6.9-6.1,13.7-9.5,20.3"/>
<g>
	<path class="st1" d="M187.5,629.9l-68.9,18.2c-16.3,4.3-33.1-5.2-37.5-21.4l-35.8-132c-4.4-16.1,5.3-32.7,21.6-37l68.9-18.2
		c16.3-4.3,33.1,5.2,37.5,21.4l35.8,132C213.5,609,203.9,625.6,187.5,629.9z"/>
	<path class="st2" d="M74.5,602.1c-25.2,6.7-50.7-6.4-56.9-29.2s9.3-46.7,34.5-53.4"/>
	<polygon class="st3" points="157.7,637.8 167,635.4 115.4,445 106.1,447.4 	"/>
	<polygon class="st3" points="178.8,632.3 188.1,629.8 136.4,439.4 127.2,441.8 	"/>
	
		<rect x="136.5" y="442.8" transform="matrix(-0.9667 0.2559 -0.2559 -0.9667 407.0827 1029.8281)" class="st2" width="0" height="197.3"/>
	
		<rect x="157.6" y="437.2" transform="matrix(-0.9667 0.2559 -0.2559 -0.9667 447.1012 1013.4639)" class="st2" width="0" height="197.3"/>
</g>
<g>
	<path class="st1" d="M423.8,629.9l68.9,18.2c16.3,4.3,33.1-5.2,37.5-21.4l35.8-132c4.4-16.1-5.3-32.7-21.6-37l-68.9-18.2
		c-16.3-4.3-33.1,5.2-37.5,21.4l-35.8,132C397.8,609,407.5,625.6,423.8,629.9z"/>
	<path class="st2" d="M536.9,602.1c25.2,6.7,50.7-6.4,56.9-29.2c6.2-22.8-9.3-46.7-34.5-53.4"/>
	<polygon class="st3" points="453.6,637.8 444.4,635.4 496,445 505.3,447.4 	"/>
	<polygon class="st3" points="432.6,632.3 423.3,629.8 474.9,439.4 484.2,441.8 	"/>
	
		<rect x="474.8" y="442.8" transform="matrix(0.9667 0.2559 -0.2559 0.9667 154.3539 -103.4791)" class="st2" width="0" height="197.3"/>
	
		<rect x="453.7" y="437.2" transform="matrix(0.9667 0.2559 -0.2559 0.9667 152.2246 -98.272)" class="st2" width="0" height="197.3"/>
</g>
<g>
	<path class="st1" d="M74.4,240.4c-5.5,0-11.1-1.2-16.4-3.7c-18.8-9-26.7-31.3-17.6-49.8c22-45,60.1-81.9,110.1-106.6
		c44.8-22.1,97.2-33.9,151.7-33.9c0.1,0,0.2,0,0.3,0c119,0,219.3,53.8,261.8,140.5c9.1,18.5,1.3,40.9-17.5,49.9
		c-18.8,9-41.4,1.2-50.5-17.3C467,159.6,391,121,302.5,121c-0.1,0-0.2,0-0.2,0c-88.6,0.1-164.6,38.7-193.8,98.4
		C102,232.7,88.5,240.4,74.4,240.4z"/>
</g>
<path class="st4" d="M566,547.7v81.6c0,21.7-17.8,39.2-39.7,39.2h-46c-13.1,0-26.1-2.1-38.5-6.3l-21.1-7.1
	c-22.7-7.7-47.3-7.9-70.2-0.6l-7.8,2.5c-23.9,7.6-49.6,8-73.7,1.4l-15.7-4.3c-21.1-5.8-43.6-4.8-64.1,2.8l-31.6,11.8"/>
</svg>
